<svg width="4300" height="1803" xmlns="http://www.w3.org/2000/svg" xmlns:xlink="http://www.w3.org/1999/xlink" overflow="hidden"><defs><clipPath id="clip0"><rect x="50" y="634" width="4300" height="1803"/></clipPath><clipPath id="clip1"><rect x="50" y="634" width="2085" height="1802"/></clipPath><clipPath id="clip2"><rect x="50" y="634" width="2085" height="1802"/></clipPath><clipPath id="clip3"><rect x="424" y="826" width="1664" height="1295"/></clipPath><clipPath id="clip4"><rect x="50" y="634" width="2085" height="1802"/></clipPath><clipPath id="clip5"><rect x="50" y="634" width="2085" height="1802"/></clipPath><clipPath id="clip6"><rect x="50" y="634" width="2085" height="1802"/></clipPath><clipPath id="clip7"><rect x="50" y="634" width="2085" height="1802"/></clipPath><clipPath id="clip8"><rect x="50" y="634" width="2085" height="1802"/></clipPath><clipPath id="clip9"><rect x="50" y="634" width="2085" height="1802"/></clipPath><clipPath id="clip10"><rect x="50" y="634" width="2085" height="1802"/></clipPath><clipPath id="clip11"><rect x="50" y="634" width="2085" height="1802"/></clipPath><clipPath id="clip12"><rect x="50" y="634" width="2085" height="1802"/></clipPath><clipPath id="clip13"><rect x="50" y="634" width="2085" height="1802"/></clipPath><clipPath id="clip14"><rect x="50" y="634" width="2085" height="1802"/></clipPath><clipPath id="clip15"><rect x="50" y="634" width="2085" height="1802"/></clipPath><clipPath id="clip16"><rect x="50" y="634" width="2085" height="1802"/></clipPath><clipPath id="clip17"><rect x="50" y="634" width="2085" height="1802"/></clipPath><clipPath id="clip18"><rect x="50" y="634" width="2085" height="1802"/></clipPath><clipPath id="clip19"><rect x="50" y="634" width="2085" height="1802"/></clipPath><clipPath id="clip20"><rect x="50" y="634" width="2085" height="1802"/></clipPath><clipPath id="clip21"><rect x="50" y="634" width="2085" height="1802"/></clipPath><clipPath id="clip22"><rect x="2264" y="634" width="2085" height="1802"/></clipPath><clipPath id="clip23"><rect x="2264" y="634" width="2085" height="1802"/></clipPath><clipPath id="clip24"><rect x="2638" y="826" width="1664" height="1272"/></clipPath><clipPath id="clip25"><rect x="2264" y="634" width="2085" height="1802"/></clipPath><clipPath id="clip26"><rect x="2264" y="634" width="2085" height="1802"/></clipPath><clipPath id="clip27"><rect x="2264" y="634" width="2085" height="1802"/></clipPath><clipPath id="clip28"><rect x="2264" y="634" width="2085" height="1802"/></clipPath><clipPath id="clip29"><rect x="2264" y="634" width="2085" height="1802"/></clipPath><clipPath id="clip30"><rect x="2264" y="634" width="2085" height="1802"/></clipPath><clipPath id="clip31"><rect x="2264" y="634" width="2085" height="1802"/></clipPath><clipPath id="clip32"><rect x="2264" y="634" width="2085" height="1802"/></clipPath><clipPath id="clip33"><rect x="2264" y="634" width="2085" height="1802"/></clipPath><clipPath id="clip34"><rect x="2264" y="634" width="2085" height="1802"/></clipPath><clipPath id="clip35"><rect x="2264" y="634" width="2085" height="1802"/></clipPath><clipPath id="clip36"><rect x="2264" y="634" width="2085" height="1802"/></clipPath><clipPath id="clip37"><rect x="2264" y="634" width="2085" height="1802"/></clipPath><clipPath id="clip38"><rect x="2264" y="634" width="2085" height="1802"/></clipPath><clipPath id="clip39"><rect x="2264" y="634" width="2085" height="1802"/></clipPath><clipPath id="clip40"><rect x="2264" y="634" width="2085" height="1802"/></clipPath><clipPath id="clip41"><rect x="2264" y="634" width="2085" height="1802"/></clipPath><clipPath id="clip42"><rect x="2264" y="634" width="2085" height="1802"/></clipPath><clipPath id="clip43"><rect x="2264" y="634" width="2085" height="1802"/></clipPath><clipPath id="clip44"><rect x="2264" y="634" width="2085" height="1802"/></clipPath></defs><g clip-path="url(#clip0)" transform="translate(-50 -634)"><g clip-path="url(#clip1)"><path d="M424.5 1859.56 2085.5 1859.56M424.5 1601.55 2085.5 1601.55M424.5 1343.54 2085.5 1343.54M424.5 1085.54 2085.5 1085.54M424.5 826.5 2085.5 826.5" stroke="#D9D9D9" stroke-width="3.4375" stroke-linejoin="round" stroke-miterlimit="10" fill="none"/></g><g clip-path="url(#clip2)"><path d="M424.5 2117.5 2085.5 2117.5" stroke="#D9D9D9" stroke-width="3.4375" stroke-linejoin="round" stroke-miterlimit="10" fill="none" fill-rule="evenodd"/></g><g clip-path="url(#clip3)"><path d="M591 1921 923.03 1446.05 1255.04 1033 1587.05 1090.04 1919 1095.04" stroke="#005293" stroke-width="10.3125" stroke-linecap="round" stroke-linejoin="round" stroke-miterlimit="10" fill="none"/></g><g clip-path="url(#clip4)"><path d="M601.916 1921.52C601.916 1927.59 596.991 1932.52 590.917 1932.52 584.842 1932.52 579.917 1927.59 579.917 1921.52 579.917 1915.44 584.842 1910.52 590.917 1910.52 596.991 1910.52 601.916 1915.44 601.916 1921.52Z" stroke="#005293" stroke-width="3.4375" stroke-linejoin="round" stroke-miterlimit="10" fill="#005293"/><path d="M933.916 1446.52C933.916 1452.59 928.992 1457.52 922.917 1457.52 916.842 1457.52 911.917 1452.59 911.917 1446.52 911.917 1440.44 916.842 1435.52 922.917 1435.52 928.992 1435.52 933.916 1440.44 933.916 1446.52Z" stroke="#005293" stroke-width="3.4375" stroke-linejoin="round" stroke-miterlimit="10" fill="#005293"/><path d="M1266.92 1033.52C1266.92 1039.59 1261.99 1044.52 1255.92 1044.52 1249.84 1044.52 1244.92 1039.59 1244.92 1033.52 1244.92 1027.44 1249.84 1022.52 1255.92 1022.52 1261.99 1022.52 1266.92 1027.44 1266.92 1033.52Z" stroke="#005293" stroke-width="3.4375" stroke-linejoin="round" stroke-miterlimit="10" fill="#005293"/><path d="M1598.92 1090.52C1598.92 1096.59 1593.99 1101.52 1587.92 1101.52 1581.84 1101.52 1576.92 1096.59 1576.92 1090.52 1576.92 1084.44 1581.84 1079.52 1587.92 1079.52 1593.99 1079.52 1598.92 1084.44 1598.92 1090.52Z" stroke="#005293" stroke-width="3.4375" stroke-linejoin="round" stroke-miterlimit="10" fill="#005293"/><path d="M1930.92 1095.52C1930.92 1101.59 1925.99 1106.52 1919.92 1106.52 1913.84 1106.52 1908.92 1101.59 1908.92 1095.52 1908.92 1089.44 1913.84 1084.52 1919.92 1084.52 1925.99 1084.52 1930.92 1089.44 1930.92 1095.52Z" stroke="#005293" stroke-width="3.4375" stroke-linejoin="round" stroke-miterlimit="10" fill="#005293"/></g><g clip-path="url(#clip5)"><text fill="#595959" font-family="Arial,Arial_MSFontService,sans-serif" font-weight="400" font-size="55" transform="matrix(1 0 0 1 191.561 2135)">60.00%</text></g><g clip-path="url(#clip6)"><text fill="#595959" font-family="Arial,Arial_MSFontService,sans-serif" font-weight="400" font-size="55" transform="matrix(1 0 0 1 191.561 1877)">65.00%</text></g><g clip-path="url(#clip7)"><text fill="#595959" font-family="Arial,Arial_MSFontService,sans-serif" font-weight="400" font-size="55" transform="matrix(1 0 0 1 191.561 1619)">70.00%</text></g><g clip-path="url(#clip8)"><text fill="#595959" font-family="Arial,Arial_MSFontService,sans-serif" font-weight="400" font-size="55" transform="matrix(1 0 0 1 191.561 1361)">75.00%</text></g><g clip-path="url(#clip9)"><text fill="#595959" font-family="Arial,Arial_MSFontService,sans-serif" font-weight="400" font-size="55" transform="matrix(1 0 0 1 191.561 1103)">80.00%</text></g><g clip-path="url(#clip10)"><text fill="#595959" font-family="Arial,Arial_MSFontService,sans-serif" font-weight="400" font-size="55" transform="matrix(1 0 0 1 191.561 845)">85.00%</text></g><g clip-path="url(#clip11)"><text fill="#595959" font-family="Arial,Arial_MSFontService,sans-serif" font-weight="400" font-size="55" transform="matrix(0.965926 0.258819 -0.258819 0.965926 585.844 2199)">Mask R-CNN</text></g><g clip-path="url(#clip12)"><text fill="#595959" font-family="Arial,Arial_MSFontService,sans-serif" font-weight="400" font-size="55" transform="matrix(0.965926 0.258819 -0.258819 0.965926 917.969 2199)">ResNet HTC</text></g><g clip-path="url(#clip13)"><text fill="#595959" font-family="Arial,Arial_MSFontService,sans-serif" font-weight="400" font-size="55" transform="matrix(0.965926 0.258819 -0.258819 0.965926 1250.09 2199)">Swin Transformer</text></g><g clip-path="url(#clip14)"><text fill="#595959" font-family="Arial,Arial_MSFontService,sans-serif" font-weight="400" font-size="55" transform="matrix(0.965926 0.258819 -0.258819 0.965926 1582.22 2199)">DCN V2</text></g><g clip-path="url(#clip15)"><text fill="#595959" font-family="Arial,Arial_MSFontService,sans-serif" font-weight="400" font-size="55" transform="matrix(0.965926 0.258819 -0.258819 0.965926 1914.34 2199)">TTA</text></g><g clip-path="url(#clip16)"><text fill="#595959" font-family="Arial,Arial_MSFontService,sans-serif" font-weight="400" font-size="61" transform="matrix(6.12323e-17 -1 1 6.12323e-17 129.042 1603)">BBox AP in %</text></g><g clip-path="url(#clip17)"><text fill="#595959" font-family="Arial,Arial_MSFontService,sans-serif" font-weight="400" font-size="61" transform="matrix(1 0 0 1 929.103 2384)">Improvements</text></g><g clip-path="url(#clip18)"><text fill="#595959" font-family="Arial,Arial_MSFontService,sans-serif" font-weight="400" font-size="85" transform="matrix(1 0 0 1 512.794 748)">Box AP w.r.t the Improvements</text></g><g clip-path="url(#clip19)"><path d="M497 2356 585 2356" stroke="#005293" stroke-width="10.3125" stroke-linecap="round" stroke-linejoin="round" stroke-miterlimit="10" fill="none" fill-rule="evenodd"/></g><g clip-path="url(#clip20)"><path d="M552 2355C552 2361.07 547.075 2366 541 2366 534.925 2366 530 2361.07 530 2355 530 2348.92 534.925 2344 541 2344 547.075 2344 552 2348.92 552 2355Z" stroke="#005293" stroke-width="3.4375" stroke-linejoin="round" stroke-miterlimit="10" fill="#005293"/></g><g clip-path="url(#clip21)"><text fill="#595959" font-family="Arial,Arial_MSFontService,sans-serif" font-weight="400" font-size="55" transform="matrix(1 0 0 1 594.297 2374)">Box AP</text></g><g clip-path="url(#clip22)"><path d="M2638.5 1841.56 4299.5 1841.56M2638.5 1587.55 4299.5 1587.55M2638.5 1334.54 4299.5 1334.54M2638.5 1080.54 4299.5 1080.54M2638.5 826.5 4299.5 826.5" stroke="#D9D9D9" stroke-width="3.4375" stroke-linejoin="round" stroke-miterlimit="10" fill="none"/></g><g clip-path="url(#clip23)"><path d="M2638.5 2094.5 4299.5 2094.5" stroke="#D9D9D9" stroke-width="3.4375" stroke-linejoin="round" stroke-miterlimit="10" fill="none" fill-rule="evenodd"/></g><g clip-path="url(#clip24)"><path d="M2805 1988 3137.1 1212.04 3469.11 1025.03 3801.12 908.03 4133 898" stroke="#005293" stroke-width="10.3125" stroke-linecap="round" stroke-linejoin="round" stroke-miterlimit="10" fill="none"/></g><g clip-path="url(#clip25)"><path d="M2815.67 1988.52C2815.67 1994.59 2810.74 1999.52 2804.67 1999.52 2798.59 1999.52 2793.67 1994.59 2793.67 1988.52 2793.67 1982.44 2798.59 1977.52 2804.67 1977.52 2810.74 1977.52 2815.67 1982.44 2815.67 1988.52Z" stroke="#005293" stroke-width="3.4375" stroke-linejoin="round" stroke-miterlimit="10" fill="#005293"/><path d="M3147.67 1212.52C3147.67 1218.59 3142.74 1223.52 3136.67 1223.52 3130.59 1223.52 3125.67 1218.59 3125.67 1212.52 3125.67 1206.44 3130.59 1201.52 3136.67 1201.52 3142.74 1201.52 3147.67 1206.44 3147.67 1212.52Z" stroke="#005293" stroke-width="3.4375" stroke-linejoin="round" stroke-miterlimit="10" fill="#005293"/><path d="M3479.67 1024.52C3479.67 1030.59 3474.74 1035.52 3468.67 1035.52 3462.59 1035.52 3457.67 1030.59 3457.67 1024.52 3457.67 1018.44 3462.59 1013.52 3468.67 1013.52 3474.74 1013.52 3479.67 1018.44 3479.67 1024.52Z" stroke="#005293" stroke-width="3.4375" stroke-linejoin="round" stroke-miterlimit="10" fill="#005293"/><path d="M3811.67 908.52C3811.67 914.594 3806.74 919.519 3800.67 919.519 3794.59 919.519 3789.67 914.594 3789.67 908.52 3789.67 902.445 3794.59 897.52 3800.67 897.52 3806.74 897.52 3811.67 902.445 3811.67 908.52Z" stroke="#005293" stroke-width="3.4375" stroke-linejoin="round" stroke-miterlimit="10" fill="#005293"/><path d="M4144.67 897.52C4144.67 903.594 4139.74 908.519 4133.67 908.519 4127.59 908.519 4122.67 903.594 4122.67 897.52 4122.67 891.445 4127.59 886.52 4133.67 886.52 4139.74 886.52 4144.67 891.445 4144.67 897.52Z" stroke="#005293" stroke-width="3.4375" stroke-linejoin="round" stroke-miterlimit="10" fill="#005293"/></g><g clip-path="url(#clip26)"><text fill="#595959" font-family="Arial,Arial_MSFontService,sans-serif" font-weight="400" font-size="55" transform="matrix(1 0 0 1 2405.31 2113)">10.00%</text></g><g clip-path="url(#clip27)"><text fill="#595959" font-family="Arial,Arial_MSFontService,sans-serif" font-weight="400" font-size="55" transform="matrix(1 0 0 1 2405.31 1859)">15.00%</text></g><g clip-path="url(#clip28)"><text fill="#595959" font-family="Arial,Arial_MSFontService,sans-serif" font-weight="400" font-size="55" transform="matrix(1 0 0 1 2405.31 1605)">20.00%</text></g><g clip-path="url(#clip29)"><text fill="#595959" font-family="Arial,Arial_MSFontService,sans-serif" font-weight="400" font-size="55" transform="matrix(1 0 0 1 2405.31 1352)">25.00%</text></g><g clip-path="url(#clip30)"><text fill="#595959" font-family="Arial,Arial_MSFontService,sans-serif" font-weight="400" font-size="55" transform="matrix(1 0 0 1 2405.31 1098)">30.00%</text></g><g clip-path="url(#clip31)"><text fill="#595959" font-family="Arial,Arial_MSFontService,sans-serif" font-weight="400" font-size="55" transform="matrix(1 0 0 1 2405.31 845)">35.00%</text></g><g clip-path="url(#clip32)"><text fill="#595959" font-family="Arial,Arial_MSFontService,sans-serif" font-weight="400" font-size="55" transform="matrix(0.965926 0.258819 -0.258819 0.965926 2799.59 2176)">Mask R-CNN</text></g><g clip-path="url(#clip33)"><text fill="#595959" font-family="Arial,Arial_MSFontService,sans-serif" font-weight="400" font-size="55" transform="matrix(0.965926 0.258819 -0.258819 0.965926 3131.72 2176)">ResNet HTC</text></g><g clip-path="url(#clip34)"><text fill="#595959" font-family="Arial,Arial_MSFontService,sans-serif" font-weight="400" font-size="55" transform="matrix(0.965926 0.258819 -0.258819 0.965926 3463.84 2176)">Swin Transformer</text></g><g clip-path="url(#clip35)"><text fill="#595959" font-family="Arial,Arial_MSFontService,sans-serif" font-weight="400" font-size="55" transform="matrix(0.965926 0.258819 -0.258819 0.965926 3795.97 2176)">DCN V2</text></g><g clip-path="url(#clip36)"><text fill="#595959" font-family="Arial,Arial_MSFontService,sans-serif" font-weight="400" font-size="55" transform="matrix(0.965926 0.258819 -0.258819 0.965926 4128.09 2176)">TTA</text></g><g clip-path="url(#clip37)"><text fill="#595959" font-family="Arial,Arial_MSFontService,sans-serif" font-weight="400" font-size="61" transform="matrix(6.12323e-17 -1 1 6.12323e-17 2342.79 1619)">Segm</text></g><g clip-path="url(#clip38)"><text fill="#595959" font-family="Arial,Arial_MSFontService,sans-serif" font-weight="400" font-size="61" transform="matrix(6.12323e-17 -1 1 6.12323e-17 2342.79 1446)">AP in %</text></g><g clip-path="url(#clip39)"><text fill="#595959" font-family="Arial,Arial_MSFontService,sans-serif" font-weight="400" font-size="61" transform="matrix(1 0 0 1 3275.77 2370)">Improvements</text></g><g clip-path="url(#clip40)"><text fill="#595959" font-family="Arial,Arial_MSFontService,sans-serif" font-weight="400" font-size="85" transform="matrix(1 0 0 1 2686.27 748)">Mask AP </text></g><g clip-path="url(#clip41)"><text fill="#595959" font-family="Arial,Arial_MSFontService,sans-serif" font-weight="400" font-size="85" transform="matrix(1 0 0 1 3045.21 748)">w.r.t  the Improvements</text></g><g clip-path="url(#clip42)"><path d="M2812 2356 2900 2356" stroke="#005293" stroke-width="10.3125" stroke-linecap="round" stroke-linejoin="round" stroke-miterlimit="10" fill="none" fill-rule="evenodd"/></g><g clip-path="url(#clip43)"><path d="M2866 2355C2866 2361.07 2861.07 2366 2855 2366 2848.93 2366 2844 2361.07 2844 2355 2844 2348.92 2848.93 2344 2855 2344 2861.07 2344 2866 2348.92 2866 2355Z" stroke="#005293" stroke-width="3.4375" stroke-linejoin="round" stroke-miterlimit="10" fill="#005293"/></g><g clip-path="url(#clip44)"><text fill="#595959" font-family="Arial,Arial_MSFontService,sans-serif" font-weight="400" font-size="55" transform="matrix(1 0 0 1 2908.95 2374)">mask AP</text></g></g></svg>