<svg width="2153" height="1400" xmlns="http://www.w3.org/2000/svg" xmlns:xlink="http://www.w3.org/1999/xlink" overflow="hidden"><defs><clipPath id="clip0"><rect x="1032" y="709" width="2153" height="1400"/></clipPath><clipPath id="clip1"><rect x="1732" y="522" width="1448" height="537"/></clipPath><clipPath id="clip2"><rect x="1035" y="614" width="698" height="536"/></clipPath><clipPath id="clip3"><rect x="1732" y="614" width="721" height="536"/></clipPath><clipPath id="clip4"><rect x="2452" y="614" width="728" height="536"/></clipPath><clipPath id="clip5"><rect x="1035" y="775" width="698" height="536"/></clipPath><clipPath id="clip6"><rect x="1732" y="775" width="721" height="536"/></clipPath><clipPath id="clip7"><rect x="2452" y="775" width="728" height="536"/></clipPath><clipPath id="clip8"><rect x="1035" y="923" width="698" height="536"/></clipPath><clipPath id="clip9"><rect x="1732" y="923" width="721" height="536"/></clipPath><clipPath id="clip10"><rect x="2452" y="923" width="728" height="536"/></clipPath><clipPath id="clip11"><rect x="1035" y="1084" width="698" height="536"/></clipPath><clipPath id="clip12"><rect x="1732" y="1084" width="721" height="536"/></clipPath><clipPath id="clip13"><rect x="2452" y="1084" width="728" height="536"/></clipPath><clipPath id="clip14"><rect x="1732" y="1197" width="1448" height="537"/></clipPath><clipPath id="clip15"><rect x="1035" y="1293" width="698" height="536"/></clipPath><clipPath id="clip16"><rect x="1732" y="1293" width="721" height="536"/></clipPath><clipPath id="clip17"><rect x="2452" y="1293" width="728" height="536"/></clipPath><clipPath id="clip18"><rect x="1035" y="1454" width="698" height="536"/></clipPath><clipPath id="clip19"><rect x="1732" y="1454" width="721" height="536"/></clipPath><clipPath id="clip20"><rect x="2452" y="1454" width="728" height="536"/></clipPath><clipPath id="clip21"><rect x="1035" y="1602" width="698" height="536"/></clipPath><clipPath id="clip22"><rect x="1732" y="1602" width="721" height="536"/></clipPath><clipPath id="clip23"><rect x="2452" y="1602" width="728" height="536"/></clipPath><clipPath id="clip24"><rect x="1035" y="1763" width="698" height="536"/></clipPath><clipPath id="clip25"><rect x="1732" y="1763" width="721" height="536"/></clipPath><clipPath id="clip26"><rect x="2452" y="1763" width="728" height="536"/></clipPath></defs><g clip-path="url(#clip0)" transform="translate(-1032 -709)"><rect x="1036.5" y="713.5" width="2144" height="1357" stroke="#FFFFFF" stroke-width="9.16667" stroke-linejoin="round" stroke-miterlimit="10" fill="#FFFFFF"/><path d="M1035.72 712.938 1732.5 712.938 1732.5 828.667 1035.72 828.667Z" fill="#EAF4FB" fill-rule="evenodd"/><path d="M1732.5 712.938 3179.63 712.938 3179.63 828.667 1732.5 828.667Z" fill="#EAF4FB" fill-rule="evenodd"/><path d="M1035.72 828.667 1732.5 828.667 1732.5 920.211 1035.72 920.211Z" fill="#EAF4FB" fill-rule="evenodd"/><path d="M1732.5 828.667 2453 828.667 2453 920.211 1732.5 920.211Z" fill="#EAF4FB" fill-rule="evenodd"/><path d="M2453 828.667 3179.63 828.667 3179.63 920.211 2453 920.211Z" fill="#EAF4FB" fill-rule="evenodd"/><path d="M1035.72 1390.5 1732.5 1390.5 1732.5 1503.68 1035.72 1503.68Z" fill="#EAF4FB" fill-rule="evenodd"/><path d="M1732.5 1390.5 3179.63 1390.5 3179.63 1503.68 1732.5 1503.68Z" fill="#EAF4FB" fill-rule="evenodd"/><path d="M1035.72 1503.68 1732.5 1503.68 1732.5 1599.02 1035.72 1599.02Z" fill="#EAF4FB" fill-rule="evenodd"/><path d="M1732.5 1503.68 2453 1503.68 2453 1599.02 1732.5 1599.02Z" fill="#EAF4FB" fill-rule="evenodd"/><path d="M2453 1503.68 3179.63 1503.68 3179.63 1599.02 2453 1599.02Z" fill="#EAF4FB" fill-rule="evenodd"/><path d="M1732.5 710.646 1732.5 2071.79" stroke="#000000" stroke-width="4.58333" stroke-linejoin="round" stroke-miterlimit="10" fill="none" fill-rule="evenodd"/><path d="M2453 826.375 2453 1392.79" stroke="#000000" stroke-width="4.58333" stroke-linejoin="round" stroke-miterlimit="10" fill="none" fill-rule="evenodd"/><path d="M2453 1501.39 2453 2071.79" stroke="#000000" stroke-width="4.58333" stroke-linejoin="round" stroke-miterlimit="10" fill="none" fill-rule="evenodd"/><path d="M1033.43 828.667 3181.93 828.667" stroke="#000000" stroke-width="4.58333" stroke-linejoin="round" stroke-miterlimit="10" fill="none" fill-rule="evenodd"/><path d="M1033.43 920.211 3181.93 920.211" stroke="#000000" stroke-width="4.58333" stroke-linejoin="round" stroke-miterlimit="10" fill="none" fill-rule="evenodd"/><path d="M1033.43 1081.51 3181.93 1081.51" stroke="#000000" stroke-width="4.58333" stroke-linejoin="round" stroke-miterlimit="10" fill="none" fill-rule="evenodd"/><path d="M1033.43 1229.2 3181.93 1229.2" stroke="#000000" stroke-width="4.58333" stroke-linejoin="round" stroke-miterlimit="10" fill="none" fill-rule="evenodd"/><path d="M1033.43 1390.5 3181.93 1390.5" stroke="#000000" stroke-width="4.58333" stroke-linejoin="round" stroke-miterlimit="10" fill="none" fill-rule="evenodd"/><path d="M1033.43 1503.68 3181.93 1503.68" stroke="#000000" stroke-width="4.58333" stroke-linejoin="round" stroke-miterlimit="10" fill="none" fill-rule="evenodd"/><path d="M1033.43 1599.02 3181.93 1599.02" stroke="#000000" stroke-width="4.58333" stroke-linejoin="round" stroke-miterlimit="10" fill="none" fill-rule="evenodd"/><path d="M1033.43 1760.32 3181.93 1760.32" stroke="#000000" stroke-width="4.58333" stroke-linejoin="round" stroke-miterlimit="10" fill="none" fill-rule="evenodd"/><path d="M1033.43 1908.21 3181.93 1908.21" stroke="#000000" stroke-width="4.58333" stroke-linejoin="round" stroke-miterlimit="10" fill="none" fill-rule="evenodd"/><path d="M1035.72 710.646 1035.72 2071.79" stroke="#000000" stroke-width="4.58333" stroke-linejoin="round" stroke-miterlimit="10" fill="none" fill-rule="evenodd"/><path d="M3179.63 710.646 3179.63 2071.79" stroke="#000000" stroke-width="4.58333" stroke-linejoin="round" stroke-miterlimit="10" fill="none" fill-rule="evenodd"/><path d="M1033.43 712.938 3181.93 712.938" stroke="#000000" stroke-width="4.58333" stroke-linejoin="round" stroke-miterlimit="10" fill="none" fill-rule="evenodd"/><path d="M1033.43 2069.5 3181.93 2069.5" stroke="#000000" stroke-width="4.58333" stroke-linejoin="round" stroke-miterlimit="10" fill="none" fill-rule="evenodd"/><g clip-path="url(#clip1)"><text font-family="Arial,Arial_MSFontService,sans-serif" font-weight="700" font-size="64" transform="matrix(1 0 0 1 1757.25 814)">BBox</text></g><g clip-path="url(#clip2)"><text font-family="Arial,Arial_MSFontService,sans-serif" font-weight="700" font-size="64" transform="matrix(1 0 0 1 1060.47 906)">Models</text></g><g clip-path="url(#clip3)"><text font-family="Arial,Arial_MSFontService,sans-serif" font-weight="700" font-size="64" transform="matrix(1 0 0 1 1757.25 906)">AP 0.5:0.95</text></g><g clip-path="url(#clip4)"><text font-family="Arial,Arial_MSFontService,sans-serif" font-weight="700" font-size="64" transform="matrix(1 0 0 1 2477.75 906)">AR 0.5:0.95</text></g><g clip-path="url(#clip5)"><text font-family="Arial,Arial_MSFontService,sans-serif" font-weight="400" font-size="64" transform="matrix(1 0 0 1 1060.47 1067)">Mask</text></g><text font-family="Arial,Arial_MSFontService,sans-serif" font-weight="400" font-size="64" transform="matrix(1 0 0 1 1231.2 1067)">R<tspan font-size="64" x="46.4063" y="0">-</tspan><tspan font-size="64" x="67.6043" y="0">CNN</tspan></text><g clip-path="url(#clip6)"><text font-family="Arial,Arial_MSFontService,sans-serif" font-weight="400" font-size="64" transform="matrix(1 0 0 1 2268.29 1067)">0.638</text></g><g clip-path="url(#clip7)"><text font-family="Arial,Arial_MSFontService,sans-serif" font-weight="400" font-size="64" transform="matrix(1 0 0 1 2994.52 1067)">0.699</text></g><g clip-path="url(#clip8)"><text font-family="Arial,Arial_MSFontService,sans-serif" font-weight="400" font-size="64" transform="matrix(1 0 0 1 1060.47 1215)">CenterMask</text></g><g clip-path="url(#clip9)"><text font-family="Arial,Arial_MSFontService,sans-serif" font-weight="400" font-size="64" transform="matrix(1 0 0 1 2268.29 1215)">0.607</text></g><g clip-path="url(#clip10)"><text font-family="Arial,Arial_MSFontService,sans-serif" font-weight="400" font-size="64" transform="matrix(1 0 0 1 2994.52 1215)">0.664</text></g><g clip-path="url(#clip11)"><text font-family="Arial,Arial_MSFontService,sans-serif" font-weight="700" font-size="64" transform="matrix(1 0 0 1 1060.47 1376)">Proposed</text></g><text font-family="Arial,Arial_MSFontService,sans-serif" font-weight="700" font-size="64" transform="matrix(1 0 0 1 1373.28 1376)">Method</text><g clip-path="url(#clip12)"><text fill="#00B050" font-family="Arial,Arial_MSFontService,sans-serif" font-weight="700" font-size="64" transform="matrix(1 0 0 1 2268.29 1376)">0.799</text></g><g clip-path="url(#clip13)"><text fill="#00B050" font-family="Arial,Arial_MSFontService,sans-serif" font-weight="700" font-size="64" transform="matrix(1 0 0 1 2994.52 1376)">0.818</text></g><g clip-path="url(#clip14)"><text font-family="Arial,Arial_MSFontService,sans-serif" font-weight="700" font-size="64" transform="matrix(1 0 0 1 1757.25 1489)">Segmentation Mask</text></g><g clip-path="url(#clip15)"><text font-family="Arial,Arial_MSFontService,sans-serif" font-weight="700" font-size="64" transform="matrix(1 0 0 1 1060.47 1585)">Models</text></g><g clip-path="url(#clip16)"><text font-family="Arial,Arial_MSFontService,sans-serif" font-weight="700" font-size="64" transform="matrix(1 0 0 1 1757.25 1585)">AP 0.5:0.95</text></g><g clip-path="url(#clip17)"><text font-family="Arial,Arial_MSFontService,sans-serif" font-weight="700" font-size="64" transform="matrix(1 0 0 1 2477.75 1585)">AR 0.5:0.95</text></g><g clip-path="url(#clip18)"><text font-family="Arial,Arial_MSFontService,sans-serif" font-weight="400" font-size="64" transform="matrix(1 0 0 1 1060.47 1746)">Mask</text></g><text font-family="Arial,Arial_MSFontService,sans-serif" font-weight="400" font-size="64" transform="matrix(1 0 0 1 1231.2 1746)">R<tspan font-size="64" x="46.4063" y="0">-</tspan><tspan font-size="64" x="67.6043" y="0">CNN</tspan></text><g clip-path="url(#clip19)"><text font-family="Arial,Arial_MSFontService,sans-serif" font-weight="400" font-size="64" transform="matrix(1 0 0 1 2268.29 1746)">0.121</text></g><g clip-path="url(#clip20)"><text font-family="Arial,Arial_MSFontService,sans-serif" font-weight="400" font-size="64" transform="matrix(1 0 0 1 2994.52 1746)">0.244</text></g><g clip-path="url(#clip21)"><text font-family="Arial,Arial_MSFontService,sans-serif" font-weight="400" font-size="64" transform="matrix(1 0 0 1 1060.47 1894)">CenterMask</text></g><g clip-path="url(#clip22)"><text font-family="Arial,Arial_MSFontService,sans-serif" font-weight="400" font-size="64" transform="matrix(1 0 0 1 2268.29 1894)">0.289</text></g><g clip-path="url(#clip23)"><text font-family="Arial,Arial_MSFontService,sans-serif" font-weight="400" font-size="64" transform="matrix(1 0 0 1 2994.52 1894)">0.335</text></g><g clip-path="url(#clip24)"><text font-family="Arial,Arial_MSFontService,sans-serif" font-weight="700" font-size="64" transform="matrix(1 0 0 1 1060.47 2055)">Proposed</text></g><text font-family="Arial,Arial_MSFontService,sans-serif" font-weight="700" font-size="64" transform="matrix(1 0 0 1 1373.28 2055)">Method</text><g clip-path="url(#clip25)"><text fill="#00B050" font-family="Arial,Arial_MSFontService,sans-serif" font-weight="700" font-size="64" transform="matrix(1 0 0 1 2268.29 2055)">0.334</text></g><g clip-path="url(#clip26)"><text fill="#00B050" font-family="Arial,Arial_MSFontService,sans-serif" font-weight="700" font-size="64" transform="matrix(1 0 0 1 2994.52 2055)">0.434</text></g></g></svg>